<svg viewBox="0 0 500 117.58" xmlns="http://www.w3.org/2000/svg" width="800" height="188"><g fill="#2c9f37"><path d="m147.93 26c1-14.17 14-26.15 28.19-25.95 14.51-.51 28 11.71 28.78 26.22.39 10.44.3 20.92 0 31.36-10.83-.4-21.7.39-32.49-.42-14.82-1.71-26.31-16.48-24.48-31.21z"/><path d="m149.5 78.94a28.55 28.55 0 0 1 26.5-18.88c9.7-.12 19.4 0 29.12 0-.29 11.24.62 22.52-.52 33.73-2.29 16.37-20.6 27.75-36.32 22.56-15.44-4.21-24.64-22.53-18.78-37.41z"/><path d="m207.63 60c9.75.05 19.5-.1 29.24 0 12.67 0 24.45 9.58 27.18 21.92a28.67 28.67 0 0 1 -38.77 33.32 28.52 28.52 0 0 1 -17.61-25.19c-.15-9.96.01-20.05-.04-30.05z"/></g><path d="m208.49 21.51c2.91-11.95 14.28-21.28 26.63-21.43 9.9-.15 19.82 0 29.73 0-.05 10.41.29 20.84-.15 31.25-.83 13.46-12.52 25.26-26 26-10.39.29-20.84.42-31.23-.08.6-11.92-1-23.96 1.02-35.74z" fill="#b0d286"/><path d="m24.78 21.58c6.23-2.65 13.11-2.72 19.77-2.7 30.54.07 61.09-.05 91.63.07.51 2.94-.51 5.89-4 5-30.91-.1-61.82 0-92.71-.07a33.52 33.52 0 0 0 -27.61 13.49 35.89 35.89 0 0 0 -2.53 39 33.94 33.94 0 0 0 30.15 17.42q48.23 0 96.47 0c0 1.2.07 3.59.1 4.79-32.17.07-64.33 0-96.49 0a38 38 0 0 1 -30.11-13.67 40.79 40.79 0 0 1 -8.45-35.24 39.55 39.55 0 0 1 23.78-28.09z" fill="#b0d286"/><path d="m276.52 18.93q92.29-.05 184.59 0a38.1 38.1 0 0 1 30.82 15.42 41 41 0 0 1 5.16 39.65c-5.52 14.44-20.23 25-35.83 24.63q-92.29.05-184.62 0c0-1.23.07-3.69.08-4.91 58.68.1 117.36 0 176 .05 6.71-.05 13.68.49 20.06-2.06 13.67-4.88 22.91-19.13 22.47-33.54.15-17.5-14.66-34-32.43-34.27q-91.1-.2-182.19 0c-3.63.7-4.99-1.58-4.11-4.97z" fill="#b0d286"/><g fill="#090400"><path d="m32 36.93h23.4v7.56l-7.71.05q0 17.23 0 34.45h-7.94q0-17.23 0-34.45l-7.83-.07c.02-2.47.08-5.03.08-7.54z"/><path d="m72.06 37.27c10.83-3.8 24 2.13 27.77 13.09 4.4 10.92-1.62 24.67-12.89 28.36-10.82 4.18-24.43-1.35-28.46-12.38-4.75-11.34 1.75-25.61 13.58-29.07zm.07 8.38c-9.73 4.79-9.43 20.5.3 25.14 8.94 5.1 21.26-2.19 20.9-12.52.67-10.61-12.21-18.12-21.21-12.62z"/><path d="m108 37c6.73.2 13.88-1.18 20.26 1.57 8.27 3.83 8.87 17.17 1.35 22.07-4 2.77-9.11 2.38-13.75 2.67v15.71c-2.6 0-5.2 0-7.79 0-.01-14.02.06-28.02-.07-42.02zm7.86 7.39q0 5.62 0 11.2c4.22.1 11.62.29 11.13-5.85.01-5.83-6.99-5.22-11.08-5.34z"/><path d="m286 41.64c10.17-9.7 29.24-6 34.25 7.44-2.87 0-5.74 0-8.6 0-3.66-3.69-8.84-6.36-14.14-4.84-8.62 1.72-13.48 12.38-9.38 20.11 3.26 7.61 14.22 10.81 20.62 5.21 2.94-3.15 7.41-1.82 11.19-2-5.11 13.08-23.77 16.63-33.79 7.15-9.56-8.32-9.72-24.71-.15-33.07z"/><path d="m326.47 36.93c8.28.56 18.41-2.14 24.9 4.52 6.65 7.58 2 20.87-8.06 22.4 4 4.94 7.79 10.09 11.64 15.15-3.26 0-6.51 0-9.77 0q-5.37-7.72-10.81-15.4v15.4h-7.91c.01-14-.02-28.05.01-42.07zm7.91 7.51v12.62c2.85-.19 5.82.12 8.59-.76 4.39-1.37 4.89-8.3 1-10.54-2.88-1.63-6.39-1.02-9.58-1.32z"/><path d="m360.72 36.95q11.29 0 22.59 0 0 3.8 0 7.59c-4.89 0-9.79 0-14.66 0v9.68q7 0 14 0v7.58q-7 0-14 0v9.58h14.65v7.62q-11.3 0-22.53 0c-.1-14-.01-28-.05-42.05z"/><path d="m391.58 37c7.78.1 16-1.1 23.35 2.08 14.78 6.51 14.61 31.89-.46 38-7.25 2.92-15.23 1.69-22.84 1.92-.03-14 .05-28-.05-42zm7.74 7.66c.24 8.94.05 17.88.12 26.83 4.93-.19 10.48.15 14.54-3.22 4.81-4.39 4.89-12.27 2.14-17.8-3.33-5.8-10.86-6.2-16.8-5.8z"/><path d="m446.36 36.93h23.27v7.61c-2.58 0-5.15 0-7.71.07v34.43c-2.65 0-5.28 0-7.91 0q0-17.23 0-34.45c-2.58 0-5.15 0-7.71 0 .04-2.59.04-5.13.06-7.66z"/><path d="m432.75 36.93c2.65 0 5.31 0 8 .08-.12 14 0 28-.07 42h-7.91q-.02-21.01-.02-42.08z"/></g></svg>